<svg width="512" height="512" viewBox="0 0 512 512" fill="none" xmlns="http://www.w3.org/2000/svg">
  <rect width="512" height="512" rx="36" fill="#030303"/>
  <path d="M189.1 91.7l20.9 51.7a150.8 150.8 0 0 1 47.6-1.3l25.2-49.7 51.1 22.9-16.5 53.2a151.7 151.7 0 0 1 33.3 34l53.7-15.6 21.9 51.7-50.4 24a150.8 150.8 0 0 1-.4 47.6l49.9 25-22.9 51.1-53.1-16.6a151.6 151.6 0 0 1-34 33.4l15.5 53.6-51.6 21.9-24.1-50.4a151 151 0 0 1-47.6-.4l-25 49.9-51.1-22.9 16.6-53.1a151.5 151.5 0 0 1-33.4-34l-53.6 15.5-22-51.7 50.5-24a151.5 151.5 0 0 1 .4-47.5l-49.9-25 22.9-51.1 53.1 16.5a151.4 151.4 0 0 1 34-33.3l-15.5-53.7 51.6-21.9Z" fill="url(#gear)" opacity=".95"/>
  <circle cx="256" cy="286" r="112" fill="#030303"/>
  <path d="M347.6 168H205c-38.8 0-68.1 24.4-75.5 58.2h168.2l-19.8 35.4H183.8c-10.5 0-18.7 5.7-18.7 14.8 0 8.9 8 14.5 18.7 14.5h86.7c40.5 0 66.7 22.3 66.7 56.8 0 41.7-34.1 67.8-78.6 67.8H106.4l24.4-43.6h138.5c13.2 0 22.4-7.2 22.4-18.1 0-10.6-9.3-17-23.3-17h-84.6c-41.1 0-65.1-22.4-65.1-56.7 0-42.5 35.1-67.7 80.3-67.7h124.1L347.6 168Z" fill="url(#gold)"/>
  <path d="M381.6 231.2 470 415.5h-55.8l-17-38.1h-82l-17.5 38.1h-56.9l89.6-184.3h51.2Zm-49.1 105.9h47.2l-23.2-52.5-24 52.5Z" fill="url(#gold)"/>
  <defs>
    <linearGradient id="gold" x1="116" y1="178" x2="445" y2="427" gradientUnits="userSpaceOnUse">
      <stop stop-color="#FFE66A"/>
      <stop offset=".42" stop-color="#F5B400"/>
      <stop offset="1" stop-color="#B66D00"/>
    </linearGradient>
    <linearGradient id="gear" x1="80" y1="91" x2="402" y2="459" gradientUnits="userSpaceOnUse">
      <stop stop-color="#FFE36A"/>
      <stop offset=".52" stop-color="#D99A00"/>
      <stop offset="1" stop-color="#7B4300"/>
    </linearGradient>
  </defs>
</svg>
